<svg width="190" height="112" viewBox="0 0 190 112" fill="none" xmlns="http://www.w3.org/2000/svg">
<g id="Logo">
<path id="Vector" d="M96.5769 86.0559H101.42V88.7089C101.42 90.1302 100.116 91.0554 98.2713 91.0554H96.5825V105.006H94.3531C90.8919 105.006 89.4707 103.663 89.4707 100.469V85.9055C89.4707 78.2976 94.0465 76.1797 98.0427 76.1797C101.615 76.1797 102.964 77.9855 102.964 80.1759V81.8647H102.775C101.967 81.4411 100.467 81.2906 99.5086 81.2906C97.7808 81.2906 96.5881 82.2883 96.5881 83.559V86.0559H96.5769ZM124.829 94.2044C124.829 101.121 120.638 105.58 113.336 105.58C107.3 105.58 102.385 101.121 102.385 94.8955C102.385 87.9008 107.228 83.2915 113.877 83.2915C119.64 83.2915 124.829 87.6723 124.829 94.2044ZM117.6 94.8565C117.6 91.0498 115.945 89.0545 113.409 89.0545C111.414 89.0545 109.602 91.1668 109.602 94.0483C109.602 98.1226 111.219 99.8894 113.793 99.8894C116.101 99.8894 117.6 97.777 117.6 94.8565ZM144.236 83.8656H141.393V95.4362C141.393 98.7803 140.011 99.7779 138.283 99.7779C136.283 99.7779 134.822 98.8193 134.822 95.7037V88.1683C134.822 84.9412 133.44 83.8656 130.246 83.8656H127.404V95.5086C127.404 102.275 131.133 105.613 137.971 105.613C144.81 105.613 148.773 102.464 148.773 95.6981V88.1627C148.773 85.0862 147.156 83.86 144.236 83.86V83.8656ZM162.567 83.2525C155.84 83.2525 151.805 87.2097 151.805 93.2848V100.703C151.805 103.78 153.533 105.006 156.648 105.006H159.106V93.1677C159.106 90.5928 160.26 89.1715 162.372 89.1715C164.83 89.1715 165.794 90.4423 165.794 93.2848V100.703C165.794 103.93 166.792 105.006 170.019 105.006H173.096V93.4743C173.096 87.2097 170.058 83.2525 162.567 83.2525ZM186.054 89.6286C187.704 89.6286 189.627 88.2463 189.627 86.4405V83.8656H183.44V78.7156H182.671C181.133 78.7156 179.828 79.4068 178.864 80.1369C177.443 81.2126 176.328 82.7509 176.328 84.6737V97.777C176.328 103.579 180.207 105.312 183.825 105.312C187.631 105.312 189.242 103.696 189.242 101.929V99.0868H189.053C188.283 99.3933 187.475 99.5494 185.747 99.5494C184.326 99.5494 183.44 98.7022 183.44 97.281V89.6341H186.054V89.6286Z" fill="#ADADAD"/>
<path id="Vector_2" d="M12.4902 78.4863H9.64774C5.03845 83.2907 0 97.8933 0 101.739C0 103.701 1.03667 105.005 3.38312 105.005H6.34265C6.64919 103.355 7.11179 100.663 7.68586 98.7405H16.832C17.1385 99.8552 17.367 100.892 17.5621 101.856C18.0247 104.242 19.4069 105.005 22.0599 105.005H25.365C24.1723 95.976 20.1761 85.4811 17.6401 81.2564C16.754 79.7961 15.0652 78.4919 12.4902 78.4919V78.4863ZM9.26317 93.0109C10.0323 90.3969 11.186 87.2869 12.3397 85.0965C13.4154 87.2089 14.5691 90.4025 15.3383 93.0109H9.26874H9.26317ZM47.3079 98.3169V92.7434C47.3079 86.9804 44.3094 83.2517 37.8943 83.2517C30.71 83.2517 26.1342 87.9 26.1342 93.7076C26.1342 100.279 30.4369 102.971 35.7819 102.971C37.8943 102.971 39.5886 101.667 40.0456 100.318V101.048C40.0456 101.432 40.1237 101.934 40.1237 102.28C40.1237 104.548 38.4739 106.237 35.3973 106.237C31.9752 106.237 29.5173 105.546 28.2131 104.353H27.9846V106.621C27.9846 109.313 30.331 112 36.3615 112C43.0498 112 47.4305 107.887 47.4305 102.737C47.4305 101.968 47.4305 101.237 47.3915 100.585C47.3525 99.5876 47.3135 98.8185 47.3135 98.3169H47.3079ZM37.0471 97.3136C34.8567 97.3136 33.3964 96.1599 33.3964 93.0109C33.3964 90.553 34.6672 89.1317 36.8576 89.1317C39.048 89.1317 40.2017 90.2464 40.2017 93.3564C40.2017 95.7363 39.087 97.3136 37.0527 97.3136H37.0471ZM63.6829 86.6292V89.3212H63.4544C62.5292 88.9757 61.838 88.8976 60.8794 88.8976C59.1126 88.8976 57.7304 89.7838 57.7304 92.3588V105.005H55.7295C52.5805 105.005 50.6576 103.545 50.6576 100.011V90.8261C50.6576 86.5623 53.5391 83.1792 58.3435 83.1792C61.9941 83.1792 63.6829 84.6785 63.6829 86.6404V86.6292ZM75.7495 83.2907C69.1003 83.2907 64.257 87.9 64.257 94.8947C64.257 101.12 69.1784 105.579 75.2089 105.579C82.5102 105.579 86.7015 101.12 86.7015 94.2036C86.7015 87.6715 81.5125 83.2907 75.7495 83.2907ZM75.6715 99.8886C73.0965 99.8886 71.4802 98.1218 71.4802 94.0476C71.4802 91.1661 73.286 89.0537 75.2869 89.0537C77.8229 89.0537 79.4782 91.0546 79.4782 94.8557C79.4782 97.7762 77.9789 99.8886 75.6715 99.8886Z" fill="#ADADAD"/>
<path id="Vector_3" fill-rule="evenodd" clip-rule="evenodd" d="M113.375 23.186C117.762 15.9181 125.314 11.1417 133.758 10.3056C124.299 9.36928 115.159 13.9841 110.293 22.1493C106.392 28.6982 105.812 36.5791 108.487 43.5014C102.357 29.0772 106.721 11.9721 119.673 2.33551C124.684 -0.93056 131.188 -0.757782 136.015 2.77025C140.842 6.2927 142.993 12.4347 141.41 18.2033C137.447 32.6442 124.45 25.0643 116.006 34.0376C112.673 37.5824 111.029 42.3867 111.486 47.2301C108.292 39.3659 108.989 30.4594 113.375 23.1916V23.186ZM129.99 43.3454C138.311 41.6789 146.933 44.0365 153.248 49.6992C147.563 42.0858 137.982 38.4518 128.68 40.3691C121.217 41.9074 115.008 46.8009 111.698 53.439C118.213 39.182 133.78 30.8607 149.631 33.9261C155.422 35.4198 159.68 40.3412 160.338 46.2826C160.995 52.224 157.908 57.9535 152.585 60.6734C139.253 67.4898 136.082 52.7813 123.759 52.603C118.893 52.5305 114.239 54.5593 110.973 58.1653C114.624 50.5018 121.669 45.0063 129.99 43.3398V43.3454ZM79.2544 35.0799C65.6383 32.3544 51.5374 36.2057 41.2041 45.4744C50.5063 33.0232 66.1734 27.0707 81.4002 30.2142C93.6118 32.7334 103.767 40.7314 109.179 51.5997C98.522 28.2802 73.0511 14.6697 47.1287 19.6803C37.6593 22.127 30.6925 30.1696 29.6168 39.8898C28.5467 49.61 33.5907 58.9846 42.2965 63.4323C64.1056 74.5849 69.2946 50.5185 89.4539 50.2286C97.4073 50.1116 105.032 53.4278 110.371 59.3302C104.402 46.7954 92.8705 37.8053 79.26 35.0799H79.2544Z" fill="#ADADAD"/>
</g>
</svg>
