<svg width="144" height="85" viewBox="0 0 144 85" fill="none" xmlns="http://www.w3.org/2000/svg">
<g id="Logo">
<path id="Vector" d="M73.3039 65.3185H76.9801V67.3321C76.9801 68.4109 75.9902 69.1131 74.5899 69.1131H73.3081V79.7018H71.616C68.9889 79.7018 67.9102 78.6822 67.9102 76.2582V65.2043C67.9102 59.4298 71.3833 57.8223 74.4165 57.8223C77.1281 57.8223 78.1519 59.1929 78.1519 60.8554V62.1372H78.0081C77.3947 61.8157 76.2567 61.7015 75.5291 61.7015C74.2176 61.7015 73.3123 62.4588 73.3123 63.4233V65.3185H73.3039ZM94.7476 71.5033C94.7476 76.7532 91.5664 80.1375 86.0246 80.1375C81.4431 80.1375 77.7119 76.7532 77.7119 72.0279C77.7119 66.7187 81.3881 63.2202 86.435 63.2202C90.8092 63.2202 94.7476 66.5453 94.7476 71.5033ZM89.2609 71.9983C89.2609 69.1089 88.0044 67.5944 86.0796 67.5944C84.5651 67.5944 83.1903 69.1977 83.1903 71.3848C83.1903 74.4772 84.4171 75.8183 86.3715 75.8183C88.1229 75.8183 89.2609 74.215 89.2609 71.9983ZM109.478 63.656H107.32V72.4382C107.32 74.9764 106.271 75.7337 104.96 75.7337C103.441 75.7337 102.333 75.006 102.333 72.6413V66.9218C102.333 64.4724 101.284 63.656 98.8596 63.656H96.7021V72.4932C96.7021 77.6289 99.5322 80.1629 104.723 80.1629C109.914 80.1629 112.921 77.7727 112.921 72.637V66.9176C112.921 64.5824 111.695 63.6517 109.478 63.6517V63.656ZM123.392 63.1906C118.285 63.1906 115.223 66.1942 115.223 70.8053V76.4359C115.223 78.7711 116.534 79.7018 118.899 79.7018H120.764V70.7164C120.764 68.762 121.64 67.6833 123.243 67.6833C125.109 67.6833 125.841 68.6478 125.841 70.8053V76.4359C125.841 78.8853 126.598 79.7018 129.048 79.7018H131.383V70.9491C131.383 66.1942 129.077 63.1906 123.392 63.1906ZM141.218 68.0302C142.47 68.0302 143.93 66.981 143.93 65.6104V63.656H139.234V59.7471H138.65C137.483 59.7471 136.493 60.2717 135.761 60.8258C134.682 61.6423 133.836 62.8099 133.836 64.2694V74.215C133.836 78.6188 136.781 79.9344 139.526 79.9344C142.415 79.9344 143.638 78.7076 143.638 77.3666V75.2091H143.494C142.91 75.4418 142.297 75.5602 140.986 75.5602C139.907 75.5602 139.234 74.9172 139.234 73.8385V68.0344H141.218V68.0302Z" fill="#F96767"/>
<path id="Vector_2" d="M9.48027 59.5723H7.32278C3.82426 63.2188 0 74.3024 0 77.2214C0 78.7105 0.786849 79.7004 2.56784 79.7004H4.81417C5.04684 78.4482 5.39796 76.4049 5.83368 74.9454H12.7757C13.0084 75.7915 13.1818 76.5784 13.3299 77.3102C13.681 79.1208 14.7302 79.7004 16.7438 79.7004H19.2524C18.3471 72.8472 15.314 64.8814 13.3891 61.6748C12.7165 60.5664 11.4347 59.5765 9.48027 59.5765V59.5723ZM7.03088 70.5966C7.61467 68.6126 8.49036 66.252 9.36605 64.5895C10.1825 66.1928 11.0582 68.6168 11.642 70.5966H7.03511H7.03088ZM35.9074 74.6239V70.3936C35.9074 66.0194 33.6315 63.1892 28.7623 63.1892C23.3094 63.1892 19.8362 66.7174 19.8362 71.1254C19.8362 76.113 23.1021 78.1563 27.159 78.1563C28.7623 78.1563 30.0483 77.1664 30.3952 76.1426V76.6968C30.3952 76.9887 30.4545 77.3694 30.4545 77.6317C30.4545 79.3535 29.2023 80.6353 26.8671 80.6353C24.2697 80.6353 22.4041 80.1107 21.4142 79.2054H21.2407V80.9272C21.2407 82.9705 23.0217 85.0095 27.599 85.0095C32.6754 85.0095 36.0005 81.8875 36.0005 77.9786C36.0005 77.3948 36.0005 76.8407 35.9709 76.3457C35.9412 75.5885 35.9116 75.0047 35.9116 74.6239H35.9074ZM28.1193 73.8625C26.4568 73.8625 25.3484 72.9868 25.3484 70.5966C25.3484 68.731 26.3129 67.6523 27.9755 67.6523C29.638 67.6523 30.5137 68.4984 30.5137 70.8589C30.5137 72.6653 29.6676 73.8625 28.1235 73.8625H28.1193ZM48.3362 65.7528V67.7961H48.1628C47.4606 67.5338 46.936 67.4746 46.2084 67.4746C44.8673 67.4746 43.8182 68.1472 43.8182 70.1017V79.7004H42.2995C39.9093 79.7004 38.4499 78.592 38.4499 75.91V68.9383C38.4499 65.7021 40.637 63.1342 44.2835 63.1342C47.0544 63.1342 48.3362 64.2722 48.3362 65.7613V65.7528ZM57.495 63.2189C52.4482 63.2189 48.772 66.7174 48.772 72.0265C48.772 76.7518 52.5074 80.1361 57.0847 80.1361C62.6264 80.1361 65.8077 76.7518 65.8077 71.5019C65.8077 66.5439 61.8692 63.2189 57.495 63.2189ZM57.4358 75.8169C55.4813 75.8169 54.2545 74.4759 54.2545 71.3835C54.2545 69.1964 55.6252 67.5931 57.1439 67.5931C59.0687 67.5931 60.3251 69.1118 60.3251 71.9969C60.3251 74.2136 59.1871 75.8169 57.4358 75.8169Z" fill="#61BF75"/>
<path id="Vector_3" fill-rule="evenodd" clip-rule="evenodd" d="M86.053 17.5985C89.3824 12.0821 95.1145 8.45668 101.524 7.82212C94.3446 7.11142 87.4068 10.6142 83.7137 16.8117C80.7524 21.7824 80.3124 27.7641 82.343 33.0182C77.6896 22.07 81.002 9.08701 90.8334 1.77269C94.6365 -0.706309 99.5733 -0.575168 103.237 2.10266C106.9 4.77625 108.533 9.43813 107.332 13.8166C104.324 24.7775 94.4588 19.0242 88.0498 25.8351C85.52 28.5256 84.2721 32.1722 84.619 35.8484C82.195 29.8793 82.7237 23.1192 86.053 17.6027V17.5985ZM98.6638 32.8998C104.98 31.6349 111.524 33.4243 116.317 37.7224C112.002 31.9437 104.73 29.1855 97.6697 30.6408C92.0052 31.8083 87.2925 35.5226 84.7797 40.561C89.725 29.7397 101.54 23.4237 113.572 25.7504C117.967 26.8842 121.199 30.6196 121.698 35.1292C122.197 39.6388 119.854 43.9876 115.814 46.052C105.695 51.2258 103.288 40.0618 93.9342 39.9264C90.2411 39.8714 86.7087 41.4113 84.2298 44.1483C87.0006 38.3316 92.3478 34.1604 98.6638 32.8955V32.8998ZM60.1547 26.6261C49.8199 24.5575 39.1171 27.4807 31.2739 34.5158C38.3344 25.0651 50.226 20.5471 61.7834 22.933C71.0521 24.8451 78.7599 30.9157 82.8676 39.165C74.7791 21.4651 55.4463 11.1345 35.7708 14.9376C28.5834 16.7947 23.2955 22.8992 22.479 30.2769C21.6668 37.6547 25.4953 44.7702 32.1031 48.146C48.6565 56.611 52.595 38.3443 67.8963 38.1243C73.933 38.0354 79.7202 40.5525 83.7729 45.0325C79.2421 35.5184 70.4895 28.6948 60.1589 26.6261H60.1547Z" fill="url(#paint0_radial_3603_12)"/>
</g>
<defs>
<radialGradient id="paint0_radial_3603_12" cx="0" cy="0" r="1" gradientUnits="userSpaceOnUse" gradientTransform="translate(69.0131 28.8513) scale(81.7604 81.7604)">
<stop offset="0.24" stop-color="#61BF75"/>
<stop offset="1" stop-color="#296D34"/>
</radialGradient>
</defs>
</svg>
